<?xml version="1.0" encoding="UTF-8"?>
<svg width="337px" height="232px" viewBox="0 0 337 232" version="1.1" xmlns="http://www.w3.org/2000/svg" xmlns:xlink="http://www.w3.org/1999/xlink">
    <!-- Generator: Sketch 55 (78076) - https://sketchapp.com -->
    <title>Launch digital products faster</title>
    <desc>Created with Sketch.</desc>
    <defs>
        <path d="M165.837,29.161 L165.844,29.107 C165.844,29.107 112.344,78.164 53.288,77.092 L53.288,77.092 C52.33,77.037 51.367,77 50.395,77 L50.395,77 C22.781,77 0.395,99.386 0.395,127 L0.395,127 C0.395,154.241 22.184,176.378 49.282,176.972 L49.282,176.972 C72.94,180.825 87.443,192.427 94.343,199.524 L94.343,199.524 C107.938,218.572 130.206,231 155.395,231 L155.395,231 C173.566,231 190.219,224.53 203.197,213.778 L203.197,213.778 C217.623,205.346 235.117,201.3 243.316,199.757 L243.316,199.757 C295.315,196.202 336.395,152.902 336.395,100 L336.395,100 C336.395,44.771 291.623,0 236.395,0 L236.395,0 C208.852,0 183.921,11.145 165.837,29.161" id="path-1"></path>
        <linearGradient x1="21.4512088%" y1="71.3364008%" x2="84.7133944%" y2="27.8436482%" id="linearGradient-3">
            <stop stop-color="#D6EFF9" offset="0%"></stop>
            <stop stop-color="#F2F9FD" offset="100%"></stop>
        </linearGradient>
        <path d="M0.686,92.323 C0.686,143.083 41.833,184.231 92.592,184.231 L92.592,184.231 C143.352,184.231 184.499,143.083 184.499,92.323 L184.499,92.323 C184.499,41.565 143.352,0.417 92.592,0.417 L92.592,0.417 C41.833,0.417 0.686,41.565 0.686,92.323" id="path-4"></path>
        <path d="M0.686,92.323 C0.686,143.083 41.833,184.231 92.592,184.231 L92.592,184.231 C143.352,184.231 184.499,143.083 184.499,92.323 L184.499,92.323 C184.499,41.565 143.352,0.417 92.592,0.417 L92.592,0.417 C41.833,0.417 0.686,41.565 0.686,92.323" id="path-6"></path>
        <path d="M0.686,92.323 C0.686,143.083 41.833,184.231 92.592,184.231 L92.592,184.231 C143.352,184.231 184.499,143.083 184.499,92.323 L184.499,92.323 C184.499,41.565 143.352,0.417 92.592,0.417 L92.592,0.417 C41.833,0.417 0.686,41.565 0.686,92.323" id="path-8"></path>
        <polyline id="path-10" points="0 132.354 48.764 205.5 236.398 148.255 114.49 0.903"></polyline>
        <polyline id="path-12" points="200.927 0.5 0.571 34.423 90.678 211.457 233.79 96.968"></polyline>
        <path d="M0.686,92.323 C0.686,103.656 2.736,114.508 6.487,124.53 L6.487,124.53 L166.878,38.195 C150.163,15.295 123.115,0.417 92.592,0.417 L92.592,0.417 C41.833,0.417 0.686,41.565 0.686,92.323" id="path-14"></path>
        <path d="M0.686,92.323 C0.686,92.404 0.686,92.486 0.687,92.568 L0.687,92.568 C0.687,92.58 0.687,92.586 0.687,92.599 L0.687,92.599 C0.687,92.677 0.687,92.754 0.688,92.832 L0.688,92.832 C0.688,92.845 0.688,92.86 0.688,92.872 L0.688,92.872 C0.688,92.949 0.689,93.026 0.689,93.102 L0.689,93.102 C0.69,93.115 0.69,93.13 0.69,93.142 L0.69,93.142 C0.69,93.22 0.691,93.298 0.692,93.376 L0.692,93.376 C0.692,93.385 0.692,93.393 0.692,93.402 L0.692,93.402 C0.693,93.479 0.694,93.555 0.695,93.632 L0.695,93.632 C0.695,93.641 0.696,93.645 0.696,93.655 L0.696,93.655 C0.697,93.733 0.698,93.813 0.699,93.891 L0.699,93.891 C0.7,93.904 0.7,93.914 0.7,93.926 L0.7,93.926 C0.701,94.002 0.703,94.078 0.704,94.154 L0.704,94.154 C0.704,94.172 0.705,94.183 0.705,94.202 L0.705,94.202 C0.707,94.275 0.708,94.351 0.71,94.424 L0.71,94.424 C0.71,94.44 0.71,94.456 0.711,94.471 L0.711,94.471 C0.713,94.546 0.714,94.621 0.716,94.696 L0.716,94.696 C0.717,94.708 0.717,94.723 0.717,94.735 L0.717,94.735 C0.719,94.803 0.721,94.869 0.723,94.937 L0.723,94.937 C0.723,94.952 0.724,94.969 0.724,94.984 L0.724,94.984 C0.726,95.055 0.728,95.126 0.73,95.197 L0.73,95.197 C0.731,95.219 0.732,95.239 0.732,95.26 L0.732,95.26 C0.734,95.329 0.737,95.399 0.739,95.469 L0.739,95.469 C0.74,95.49 0.74,95.509 0.741,95.531 L0.741,95.531 C0.744,95.6 0.746,95.669 0.749,95.739 L0.749,95.739 C0.749,95.763 0.75,95.782 0.751,95.807 L0.751,95.807 C0.753,95.867 0.756,95.926 0.758,95.986 L0.758,95.986 C0.759,96.011 0.76,96.037 0.761,96.062 L0.761,96.062 C0.763,96.12 0.766,96.178 0.768,96.236 L0.768,96.236 C0.769,96.261 0.77,96.288 0.771,96.312 L0.771,96.312 C0.774,96.376 0.777,96.441 0.78,96.504 L0.78,96.504 C0.781,96.532 0.782,96.559 0.783,96.586 L0.783,96.586 C0.786,96.649 0.789,96.711 0.792,96.773 L0.792,96.773 C0.794,96.804 0.795,96.835 0.797,96.865 L0.797,96.865 C0.799,96.915 0.801,96.966 0.804,97.016 L0.804,97.016 C0.806,97.058 0.808,97.098 0.81,97.141 L0.81,97.141 C0.813,97.183 0.815,97.224 0.817,97.266 L0.817,97.266 C0.819,97.315 0.822,97.361 0.825,97.41 L0.825,97.41 C0.827,97.451 0.829,97.493 0.831,97.534 L0.831,97.534 C0.833,97.568 0.836,97.607 0.837,97.641 L0.837,97.641 C0.841,97.695 0.844,97.749 0.847,97.803 L0.847,97.803 C0.849,97.843 0.851,97.881 0.854,97.92 L0.854,97.92 C0.856,97.959 0.858,97.997 0.861,98.036 L0.861,98.036 C0.864,98.094 0.868,98.145 0.871,98.203 L0.871,98.203 C0.873,98.226 0.874,98.249 0.876,98.272 L0.876,98.272 C0.88,98.342 0.885,98.415 0.889,98.485 L0.889,98.485 C0.891,98.506 0.892,98.527 0.894,98.548 L0.894,98.548 C0.899,98.624 0.904,98.698 0.909,98.775 L0.909,98.775 C0.91,98.79 0.911,98.805 0.912,98.821 L0.912,98.821 C0.929,99.058 0.947,99.298 0.965,99.534 L0.965,99.534 C0.965,99.539 0.966,99.545 0.966,99.549 L0.966,99.549 C1.645,108.276 3.541,116.657 6.487,124.53 L6.487,124.53 L166.877,38.195 C152.336,18.273 129.975,4.421 104.308,1.156 L104.308,1.156 C104.301,1.155 104.294,1.155 104.287,1.154 L104.287,1.154 C104.053,1.124 103.824,1.096 103.59,1.068 L103.59,1.068 C103.584,1.067 103.578,1.066 103.573,1.066 L103.573,1.066 C103.531,1.061 103.488,1.056 103.446,1.051 L103.446,1.051 C103.437,1.05 103.429,1.049 103.42,1.048 L103.42,1.048 C103.378,1.043 103.336,1.038 103.294,1.033 L103.294,1.033 C103.289,1.032 103.284,1.032 103.278,1.031 L103.278,1.031 C103.095,1.01 102.91,0.989 102.726,0.969 L102.726,0.969 C102.721,0.968 102.71,0.967 102.705,0.967 L102.705,0.967 C102.666,0.962 102.622,0.958 102.583,0.953 L102.583,0.953 C102.572,0.952 102.562,0.951 102.551,0.95 L102.551,0.95 C102.509,0.945 102.468,0.941 102.426,0.937 L102.426,0.937 C102.423,0.936 102.418,0.936 102.414,0.935 L102.414,0.935 C102.287,0.922 102.163,0.909 102.036,0.896 L102.036,0.896 C102.018,0.894 101.996,0.892 101.978,0.89 L101.978,0.89 C101.948,0.887 101.917,0.884 101.887,0.881 L101.887,0.881 C101.865,0.879 101.844,0.876 101.822,0.874 L101.822,0.874 C101.789,0.871 101.761,0.868 101.727,0.865 L101.727,0.865 C101.706,0.863 101.685,0.861 101.663,0.859 L101.663,0.859 C101.63,0.855 101.601,0.852 101.568,0.849 L101.568,0.849 C101.55,0.848 101.53,0.846 101.512,0.844 L101.512,0.844 C101.478,0.841 101.443,0.837 101.41,0.834 L101.41,0.834 C101.406,0.834 101.407,0.834 101.404,0.834 L101.404,0.834 C101.316,0.825 101.227,0.817 101.139,0.809 L101.139,0.809 C101.132,0.808 101.123,0.807 101.116,0.807 L101.116,0.807 C101.076,0.803 101.042,0.8 101.002,0.796 L101.002,0.796 C100.986,0.795 100.971,0.793 100.955,0.792 L100.955,0.792 C100.921,0.789 100.888,0.786 100.855,0.783 L100.855,0.783 C100.835,0.781 100.815,0.779 100.795,0.778 L100.795,0.778 C100.761,0.775 100.726,0.772 100.693,0.769 L100.693,0.769 C100.677,0.767 100.661,0.766 100.645,0.765 L100.645,0.765 C100.524,0.754 100.408,0.744 100.287,0.734 L100.287,0.734 C100.271,0.733 100.252,0.731 100.236,0.73 L100.236,0.73 C100.203,0.727 100.172,0.725 100.139,0.722 L100.139,0.722 C100.119,0.72 100.097,0.719 100.077,0.717 L100.077,0.717 C100.047,0.715 100.014,0.712 99.984,0.71 L99.984,0.71 C99.958,0.707 99.937,0.706 99.911,0.704 L99.911,0.704 C99.884,0.702 99.853,0.699 99.826,0.697 L99.826,0.697 C99.8,0.695 99.776,0.693 99.75,0.691 L99.75,0.691 C99.723,0.689 99.692,0.687 99.664,0.685 L99.664,0.685 C99.65,0.684 99.632,0.682 99.618,0.681 L99.618,0.681 C99.554,0.676 99.488,0.671 99.424,0.667 L99.424,0.667 C99.404,0.665 99.379,0.663 99.359,0.662 L99.359,0.662 C99.329,0.66 99.299,0.658 99.269,0.655 L99.269,0.655 C99.245,0.654 99.22,0.652 99.196,0.65 L99.196,0.65 C99.165,0.648 99.141,0.646 99.11,0.644 L99.11,0.644 C99.086,0.643 99.06,0.641 99.036,0.639 L99.036,0.639 C99.006,0.637 98.977,0.635 98.946,0.633 L98.946,0.633 C98.924,0.631 98.901,0.63 98.879,0.628 L98.879,0.628 C98.8,0.623 98.722,0.618 98.643,0.613 L98.643,0.613 C98.643,0.613 98.641,0.612 98.641,0.612 L98.641,0.612 C98.614,0.611 98.582,0.609 98.555,0.607 L98.555,0.607 C98.529,0.605 98.504,0.604 98.478,0.602 L98.478,0.602 C98.448,0.6 98.418,0.598 98.387,0.596 L98.387,0.596 C98.365,0.595 98.346,0.594 98.324,0.592 L98.324,0.592 C98.29,0.59 98.258,0.588 98.224,0.586 L98.224,0.586 C98.204,0.585 98.185,0.584 98.165,0.583 L98.165,0.583 C98.131,0.581 98.099,0.579 98.066,0.577 L98.066,0.577 C98.047,0.576 98.025,0.575 98.007,0.573 L98.007,0.573 C97.949,0.57 97.892,0.567 97.834,0.564 L97.834,0.564 C97.81,0.562 97.784,0.561 97.76,0.559 L97.76,0.559 C97.732,0.558 97.706,0.556 97.678,0.555 L97.678,0.555 C97.651,0.553 97.624,0.552 97.597,0.551 L97.597,0.551 C97.569,0.549 97.546,0.548 97.518,0.546 L97.518,0.546 C97.489,0.545 97.458,0.543 97.428,0.542 L97.428,0.542 C97.404,0.54 97.384,0.539 97.36,0.538 L97.36,0.538 C97.327,0.536 97.29,0.535 97.257,0.533 L97.257,0.533 C97.235,0.532 97.216,0.531 97.195,0.53 L97.195,0.53 C97.158,0.528 97.119,0.526 97.083,0.524 L97.083,0.524 C97.064,0.524 97.048,0.523 97.03,0.522 L97.03,0.522 C96.979,0.519 96.929,0.517 96.878,0.515 L96.878,0.515 C96.85,0.513 96.828,0.512 96.8,0.511 L96.8,0.511 C96.77,0.51 96.74,0.509 96.711,0.507 L96.711,0.507 C96.686,0.506 96.662,0.505 96.637,0.504 L96.637,0.504 C96.606,0.503 96.578,0.501 96.547,0.5 L96.547,0.5 C96.522,0.499 96.499,0.498 96.474,0.497 L96.474,0.497 C96.441,0.496 96.41,0.494 96.377,0.493 L96.377,0.493 C96.355,0.492 96.332,0.491 96.311,0.49 L96.311,0.49 C96.274,0.489 96.232,0.487 96.196,0.486 L96.196,0.486 C96.18,0.485 96.162,0.485 96.147,0.484 L96.147,0.484 C96.093,0.482 96.042,0.48 95.988,0.478 L95.988,0.478 C95.967,0.477 95.95,0.477 95.929,0.476 L95.929,0.476 C95.895,0.475 95.858,0.474 95.825,0.472 L95.825,0.472 C95.803,0.472 95.776,0.471 95.754,0.47 L95.754,0.47 C95.723,0.469 95.693,0.468 95.661,0.467 L95.661,0.467 C95.634,0.466 95.614,0.465 95.586,0.464 L95.586,0.464 C95.556,0.464 95.53,0.463 95.5,0.462 L95.5,0.462 C95.472,0.461 95.448,0.46 95.42,0.459 L95.42,0.459 C95.389,0.458 95.36,0.458 95.329,0.457 L95.329,0.457 C95.295,0.456 95.257,0.455 95.223,0.454 L95.223,0.454 C95.184,0.452 95.144,0.451 95.105,0.45 L95.105,0.45 C95.083,0.45 95.063,0.449 95.042,0.449 L95.042,0.449 C95.005,0.448 94.969,0.447 94.932,0.446 L94.932,0.446 C94.911,0.445 94.893,0.445 94.872,0.444 L94.872,0.444 C94.838,0.444 94.807,0.443 94.774,0.442 L94.774,0.442 C94.749,0.441 94.725,0.441 94.7,0.44 L94.7,0.44 C94.667,0.44 94.633,0.439 94.599,0.438 L94.599,0.438 C94.581,0.438 94.557,0.437 94.539,0.437 L94.539,0.437 C94.491,0.436 94.444,0.435 94.396,0.434 L94.396,0.434 C94.39,0.434 94.381,0.434 94.375,0.434 L94.375,0.434 C94.319,0.432 94.268,0.432 94.212,0.431 L94.212,0.431 C94.194,0.43 94.175,0.43 94.156,0.43 L94.156,0.43 C94.121,0.429 94.083,0.428 94.048,0.428 L94.048,0.428 C94.023,0.428 94.002,0.427 93.978,0.427 L93.978,0.427 C93.946,0.426 93.911,0.426 93.88,0.425 L93.88,0.425 C93.858,0.425 93.839,0.425 93.817,0.425 L93.817,0.425 C93.78,0.424 93.739,0.424 93.702,0.423 L93.702,0.423 C93.683,0.423 93.668,0.423 93.649,0.423 L93.649,0.423 C93.541,0.421 93.431,0.42 93.323,0.419 L93.323,0.419 C93.302,0.419 93.286,0.419 93.264,0.419 L93.264,0.419 C93.227,0.419 93.187,0.419 93.149,0.418 L93.149,0.418 C93.131,0.418 93.115,0.418 93.097,0.418 L93.097,0.418 C93.059,0.418 93.022,0.418 92.985,0.417 L92.985,0.417 C92.967,0.417 92.943,0.417 92.925,0.417 L92.925,0.417 C92.887,0.417 92.846,0.417 92.809,0.417 L92.809,0.417 C92.794,0.417 92.773,0.417 92.758,0.417 L92.758,0.417 C92.702,0.417 92.648,0.417 92.592,0.417 L92.592,0.417 C41.833,0.417 0.686,41.565 0.686,92.323" id="path-16"></path>
        <path d="M0.686,92.323 C0.686,92.404 0.686,92.486 0.687,92.568 L0.687,92.568 C0.687,92.58 0.687,92.586 0.687,92.599 L0.687,92.599 C0.687,92.677 0.687,92.754 0.688,92.832 L0.688,92.832 C0.688,92.845 0.688,92.86 0.688,92.872 L0.688,92.872 C0.688,92.949 0.689,93.026 0.689,93.102 L0.689,93.102 C0.69,93.115 0.69,93.13 0.69,93.142 L0.69,93.142 C0.69,93.22 0.691,93.298 0.692,93.376 L0.692,93.376 C0.692,93.385 0.692,93.393 0.692,93.402 L0.692,93.402 C0.693,93.479 0.694,93.555 0.695,93.632 L0.695,93.632 C0.695,93.641 0.696,93.645 0.696,93.655 L0.696,93.655 C0.697,93.733 0.698,93.813 0.699,93.891 L0.699,93.891 C0.7,93.904 0.7,93.914 0.7,93.926 L0.7,93.926 C0.701,94.002 0.703,94.078 0.704,94.154 L0.704,94.154 C0.704,94.172 0.705,94.183 0.705,94.202 L0.705,94.202 C0.707,94.275 0.708,94.351 0.71,94.424 L0.71,94.424 C0.71,94.44 0.71,94.456 0.711,94.471 L0.711,94.471 C0.713,94.546 0.714,94.621 0.716,94.696 L0.716,94.696 C0.717,94.708 0.717,94.723 0.717,94.735 L0.717,94.735 C0.719,94.803 0.721,94.869 0.723,94.937 L0.723,94.937 C0.723,94.952 0.724,94.969 0.724,94.984 L0.724,94.984 C0.726,95.055 0.728,95.126 0.73,95.197 L0.73,95.197 C0.731,95.219 0.732,95.239 0.732,95.26 L0.732,95.26 C0.734,95.329 0.737,95.399 0.739,95.469 L0.739,95.469 C0.74,95.49 0.74,95.509 0.741,95.531 L0.741,95.531 C0.744,95.6 0.746,95.669 0.749,95.739 L0.749,95.739 C0.749,95.763 0.75,95.782 0.751,95.807 L0.751,95.807 C0.753,95.867 0.756,95.926 0.758,95.986 L0.758,95.986 C0.759,96.011 0.76,96.037 0.761,96.062 L0.761,96.062 C0.763,96.12 0.766,96.178 0.768,96.236 L0.768,96.236 C0.769,96.261 0.77,96.288 0.771,96.312 L0.771,96.312 C0.774,96.376 0.777,96.441 0.78,96.504 L0.78,96.504 C0.781,96.532 0.782,96.559 0.783,96.586 L0.783,96.586 C0.786,96.649 0.789,96.711 0.792,96.773 L0.792,96.773 C0.794,96.804 0.795,96.835 0.797,96.865 L0.797,96.865 C0.799,96.915 0.801,96.966 0.804,97.016 L0.804,97.016 C0.806,97.058 0.808,97.098 0.81,97.141 L0.81,97.141 C0.813,97.183 0.815,97.224 0.817,97.266 L0.817,97.266 C0.819,97.315 0.822,97.361 0.825,97.41 L0.825,97.41 C0.827,97.451 0.829,97.493 0.831,97.534 L0.831,97.534 C0.833,97.568 0.836,97.607 0.837,97.641 L0.837,97.641 C0.841,97.695 0.844,97.749 0.847,97.803 L0.847,97.803 C0.849,97.843 0.851,97.881 0.854,97.92 L0.854,97.92 C0.856,97.959 0.858,97.997 0.861,98.036 L0.861,98.036 C0.864,98.094 0.868,98.145 0.871,98.203 L0.871,98.203 C0.873,98.226 0.874,98.249 0.876,98.272 L0.876,98.272 C0.88,98.342 0.885,98.415 0.889,98.485 L0.889,98.485 C0.891,98.506 0.892,98.527 0.894,98.548 L0.894,98.548 C0.899,98.624 0.904,98.698 0.909,98.775 L0.909,98.775 C0.91,98.79 0.911,98.805 0.912,98.821 L0.912,98.821 C0.929,99.058 0.947,99.298 0.965,99.534 L0.965,99.534 C0.965,99.539 0.966,99.545 0.966,99.549 L0.966,99.549 C1.645,108.276 3.541,116.657 6.487,124.53 L6.487,124.53 L166.877,38.195 C152.336,18.273 129.975,4.421 104.308,1.156 L104.308,1.156 C104.301,1.155 104.294,1.155 104.287,1.154 L104.287,1.154 C104.053,1.124 103.824,1.096 103.59,1.068 L103.59,1.068 C103.584,1.067 103.578,1.066 103.573,1.066 L103.573,1.066 C103.531,1.061 103.488,1.056 103.446,1.051 L103.446,1.051 C103.437,1.05 103.429,1.049 103.42,1.048 L103.42,1.048 C103.378,1.043 103.336,1.038 103.294,1.033 L103.294,1.033 C103.289,1.032 103.284,1.032 103.278,1.031 L103.278,1.031 C103.095,1.01 102.91,0.989 102.726,0.969 L102.726,0.969 C102.721,0.968 102.71,0.967 102.705,0.967 L102.705,0.967 C102.666,0.962 102.622,0.958 102.583,0.953 L102.583,0.953 C102.572,0.952 102.562,0.951 102.551,0.95 L102.551,0.95 C102.509,0.945 102.468,0.941 102.426,0.937 L102.426,0.937 C102.423,0.936 102.418,0.936 102.414,0.935 L102.414,0.935 C102.287,0.922 102.163,0.909 102.036,0.896 L102.036,0.896 C102.018,0.894 101.996,0.892 101.978,0.89 L101.978,0.89 C101.948,0.887 101.917,0.884 101.887,0.881 L101.887,0.881 C101.865,0.879 101.844,0.876 101.822,0.874 L101.822,0.874 C101.789,0.871 101.761,0.868 101.727,0.865 L101.727,0.865 C101.706,0.863 101.685,0.861 101.663,0.859 L101.663,0.859 C101.63,0.855 101.601,0.852 101.568,0.849 L101.568,0.849 C101.55,0.848 101.53,0.846 101.512,0.844 L101.512,0.844 C101.478,0.841 101.443,0.837 101.41,0.834 L101.41,0.834 C101.406,0.834 101.407,0.834 101.404,0.834 L101.404,0.834 C101.316,0.825 101.227,0.817 101.139,0.809 L101.139,0.809 C101.132,0.808 101.123,0.807 101.116,0.807 L101.116,0.807 C101.076,0.803 101.042,0.8 101.002,0.796 L101.002,0.796 C100.986,0.795 100.971,0.793 100.955,0.792 L100.955,0.792 C100.921,0.789 100.888,0.786 100.855,0.783 L100.855,0.783 C100.835,0.781 100.815,0.779 100.795,0.778 L100.795,0.778 C100.761,0.775 100.726,0.772 100.693,0.769 L100.693,0.769 C100.677,0.767 100.661,0.766 100.645,0.765 L100.645,0.765 C100.524,0.754 100.408,0.744 100.287,0.734 L100.287,0.734 C100.271,0.733 100.252,0.731 100.236,0.73 L100.236,0.73 C100.203,0.727 100.172,0.725 100.139,0.722 L100.139,0.722 C100.119,0.72 100.097,0.719 100.077,0.717 L100.077,0.717 C100.047,0.715 100.014,0.712 99.984,0.71 L99.984,0.71 C99.958,0.707 99.937,0.706 99.911,0.704 L99.911,0.704 C99.884,0.702 99.853,0.699 99.826,0.697 L99.826,0.697 C99.8,0.695 99.776,0.693 99.75,0.691 L99.75,0.691 C99.723,0.689 99.692,0.687 99.664,0.685 L99.664,0.685 C99.65,0.684 99.632,0.682 99.618,0.681 L99.618,0.681 C99.554,0.676 99.488,0.671 99.424,0.667 L99.424,0.667 C99.404,0.665 99.379,0.663 99.359,0.662 L99.359,0.662 C99.329,0.66 99.299,0.658 99.269,0.655 L99.269,0.655 C99.245,0.654 99.22,0.652 99.196,0.65 L99.196,0.65 C99.165,0.648 99.141,0.646 99.11,0.644 L99.11,0.644 C99.086,0.643 99.06,0.641 99.036,0.639 L99.036,0.639 C99.006,0.637 98.977,0.635 98.946,0.633 L98.946,0.633 C98.924,0.631 98.901,0.63 98.879,0.628 L98.879,0.628 C98.8,0.623 98.722,0.618 98.643,0.613 L98.643,0.613 C98.643,0.613 98.641,0.612 98.641,0.612 L98.641,0.612 C98.614,0.611 98.582,0.609 98.555,0.607 L98.555,0.607 C98.529,0.605 98.504,0.604 98.478,0.602 L98.478,0.602 C98.448,0.6 98.418,0.598 98.387,0.596 L98.387,0.596 C98.365,0.595 98.346,0.594 98.324,0.592 L98.324,0.592 C98.29,0.59 98.258,0.588 98.224,0.586 L98.224,0.586 C98.204,0.585 98.185,0.584 98.165,0.583 L98.165,0.583 C98.131,0.581 98.099,0.579 98.066,0.577 L98.066,0.577 C98.047,0.576 98.025,0.575 98.007,0.573 L98.007,0.573 C97.949,0.57 97.892,0.567 97.834,0.564 L97.834,0.564 C97.81,0.562 97.784,0.561 97.76,0.559 L97.76,0.559 C97.732,0.558 97.706,0.556 97.678,0.555 L97.678,0.555 C97.651,0.553 97.624,0.552 97.597,0.551 L97.597,0.551 C97.569,0.549 97.546,0.548 97.518,0.546 L97.518,0.546 C97.489,0.545 97.458,0.543 97.428,0.542 L97.428,0.542 C97.404,0.54 97.384,0.539 97.36,0.538 L97.36,0.538 C97.327,0.536 97.29,0.535 97.257,0.533 L97.257,0.533 C97.235,0.532 97.216,0.531 97.195,0.53 L97.195,0.53 C97.158,0.528 97.119,0.526 97.083,0.524 L97.083,0.524 C97.064,0.524 97.048,0.523 97.03,0.522 L97.03,0.522 C96.979,0.519 96.929,0.517 96.878,0.515 L96.878,0.515 C96.85,0.513 96.828,0.512 96.8,0.511 L96.8,0.511 C96.77,0.51 96.74,0.509 96.711,0.507 L96.711,0.507 C96.686,0.506 96.662,0.505 96.637,0.504 L96.637,0.504 C96.606,0.503 96.578,0.501 96.547,0.5 L96.547,0.5 C96.522,0.499 96.499,0.498 96.474,0.497 L96.474,0.497 C96.441,0.496 96.41,0.494 96.377,0.493 L96.377,0.493 C96.355,0.492 96.332,0.491 96.311,0.49 L96.311,0.49 C96.274,0.489 96.232,0.487 96.196,0.486 L96.196,0.486 C96.18,0.485 96.162,0.485 96.147,0.484 L96.147,0.484 C96.093,0.482 96.042,0.48 95.988,0.478 L95.988,0.478 C95.967,0.477 95.95,0.477 95.929,0.476 L95.929,0.476 C95.895,0.475 95.858,0.474 95.825,0.472 L95.825,0.472 C95.803,0.472 95.776,0.471 95.754,0.47 L95.754,0.47 C95.723,0.469 95.693,0.468 95.661,0.467 L95.661,0.467 C95.634,0.466 95.614,0.465 95.586,0.464 L95.586,0.464 C95.556,0.464 95.53,0.463 95.5,0.462 L95.5,0.462 C95.472,0.461 95.448,0.46 95.42,0.459 L95.42,0.459 C95.389,0.458 95.36,0.458 95.329,0.457 L95.329,0.457 C95.295,0.456 95.257,0.455 95.223,0.454 L95.223,0.454 C95.184,0.452 95.144,0.451 95.105,0.45 L95.105,0.45 C95.083,0.45 95.063,0.449 95.042,0.449 L95.042,0.449 C95.005,0.448 94.969,0.447 94.932,0.446 L94.932,0.446 C94.911,0.445 94.893,0.445 94.872,0.444 L94.872,0.444 C94.838,0.444 94.807,0.443 94.774,0.442 L94.774,0.442 C94.749,0.441 94.725,0.441 94.7,0.44 L94.7,0.44 C94.667,0.44 94.633,0.439 94.599,0.438 L94.599,0.438 C94.581,0.438 94.557,0.437 94.539,0.437 L94.539,0.437 C94.491,0.436 94.444,0.435 94.396,0.434 L94.396,0.434 C94.39,0.434 94.381,0.434 94.375,0.434 L94.375,0.434 C94.319,0.432 94.268,0.432 94.212,0.431 L94.212,0.431 C94.194,0.43 94.175,0.43 94.156,0.43 L94.156,0.43 C94.121,0.429 94.083,0.428 94.048,0.428 L94.048,0.428 C94.023,0.428 94.002,0.427 93.978,0.427 L93.978,0.427 C93.946,0.426 93.911,0.426 93.88,0.425 L93.88,0.425 C93.858,0.425 93.839,0.425 93.817,0.425 L93.817,0.425 C93.78,0.424 93.739,0.424 93.702,0.423 L93.702,0.423 C93.683,0.423 93.668,0.423 93.649,0.423 L93.649,0.423 C93.541,0.421 93.431,0.42 93.323,0.419 L93.323,0.419 C93.302,0.419 93.286,0.419 93.264,0.419 L93.264,0.419 C93.227,0.419 93.187,0.419 93.149,0.418 L93.149,0.418 C93.131,0.418 93.115,0.418 93.097,0.418 L93.097,0.418 C93.059,0.418 93.022,0.418 92.985,0.417 L92.985,0.417 C92.967,0.417 92.943,0.417 92.925,0.417 L92.925,0.417 C92.887,0.417 92.846,0.417 92.809,0.417 L92.809,0.417 C92.794,0.417 92.773,0.417 92.758,0.417 L92.758,0.417 C92.702,0.417 92.648,0.417 92.592,0.417 L92.592,0.417 C41.833,0.417 0.686,41.565 0.686,92.323" id="path-18"></path>
        <path d="M0.686,92.323 C0.686,92.404 0.686,92.486 0.687,92.568 L0.687,92.568 C0.687,92.58 0.687,92.586 0.687,92.599 L0.687,92.599 C0.687,92.677 0.687,92.754 0.688,92.832 L0.688,92.832 C0.688,92.845 0.688,92.86 0.688,92.872 L0.688,92.872 C0.688,92.949 0.689,93.026 0.689,93.102 L0.689,93.102 C0.69,93.115 0.69,93.13 0.69,93.142 L0.69,93.142 C0.69,93.22 0.691,93.298 0.692,93.376 L0.692,93.376 C0.692,93.385 0.692,93.393 0.692,93.402 L0.692,93.402 C0.693,93.479 0.694,93.555 0.695,93.632 L0.695,93.632 C0.695,93.641 0.696,93.645 0.696,93.655 L0.696,93.655 C0.697,93.733 0.698,93.813 0.699,93.891 L0.699,93.891 C0.7,93.904 0.7,93.914 0.7,93.926 L0.7,93.926 C0.701,94.002 0.703,94.078 0.704,94.154 L0.704,94.154 C0.704,94.172 0.705,94.183 0.705,94.202 L0.705,94.202 C0.707,94.275 0.708,94.351 0.71,94.424 L0.71,94.424 C0.71,94.44 0.71,94.456 0.711,94.471 L0.711,94.471 C0.713,94.546 0.714,94.621 0.716,94.696 L0.716,94.696 C0.717,94.708 0.717,94.723 0.717,94.735 L0.717,94.735 C0.719,94.803 0.721,94.869 0.723,94.937 L0.723,94.937 C0.723,94.952 0.724,94.969 0.724,94.984 L0.724,94.984 C0.726,95.055 0.728,95.126 0.73,95.197 L0.73,95.197 C0.731,95.219 0.732,95.239 0.732,95.26 L0.732,95.26 C0.734,95.329 0.737,95.399 0.739,95.469 L0.739,95.469 C0.74,95.49 0.74,95.509 0.741,95.531 L0.741,95.531 C0.744,95.6 0.746,95.669 0.749,95.739 L0.749,95.739 C0.749,95.763 0.75,95.782 0.751,95.807 L0.751,95.807 C0.753,95.867 0.756,95.926 0.758,95.986 L0.758,95.986 C0.759,96.011 0.76,96.037 0.761,96.062 L0.761,96.062 C0.763,96.12 0.766,96.178 0.768,96.236 L0.768,96.236 C0.769,96.261 0.77,96.288 0.771,96.312 L0.771,96.312 C0.774,96.376 0.777,96.441 0.78,96.504 L0.78,96.504 C0.781,96.532 0.782,96.559 0.783,96.586 L0.783,96.586 C0.786,96.649 0.789,96.711 0.792,96.773 L0.792,96.773 C0.794,96.804 0.795,96.835 0.797,96.865 L0.797,96.865 C0.799,96.915 0.801,96.966 0.804,97.016 L0.804,97.016 C0.806,97.058 0.808,97.098 0.81,97.141 L0.81,97.141 C0.813,97.183 0.815,97.224 0.817,97.266 L0.817,97.266 C0.819,97.315 0.822,97.361 0.825,97.41 L0.825,97.41 C0.827,97.451 0.829,97.493 0.831,97.534 L0.831,97.534 C0.833,97.568 0.836,97.607 0.837,97.641 L0.837,97.641 C0.841,97.695 0.844,97.749 0.847,97.803 L0.847,97.803 C0.849,97.843 0.851,97.881 0.854,97.92 L0.854,97.92 C0.856,97.959 0.858,97.997 0.861,98.036 L0.861,98.036 C0.864,98.094 0.868,98.145 0.871,98.203 L0.871,98.203 C0.873,98.226 0.874,98.249 0.876,98.272 L0.876,98.272 C0.88,98.342 0.885,98.415 0.889,98.485 L0.889,98.485 C0.891,98.506 0.892,98.527 0.894,98.548 L0.894,98.548 C0.899,98.624 0.904,98.698 0.909,98.775 L0.909,98.775 C0.91,98.79 0.911,98.805 0.912,98.821 L0.912,98.821 C0.929,99.058 0.947,99.298 0.965,99.534 L0.965,99.534 C0.965,99.539 0.966,99.545 0.966,99.549 L0.966,99.549 C1.645,108.276 3.541,116.657 6.487,124.53 L6.487,124.53 L166.877,38.195 C152.336,18.273 129.975,4.421 104.308,1.156 L104.308,1.156 C104.301,1.155 104.294,1.155 104.287,1.154 L104.287,1.154 C104.053,1.124 103.824,1.096 103.59,1.068 L103.59,1.068 C103.584,1.067 103.578,1.066 103.573,1.066 L103.573,1.066 C103.531,1.061 103.488,1.056 103.446,1.051 L103.446,1.051 C103.437,1.05 103.429,1.049 103.42,1.048 L103.42,1.048 C103.378,1.043 103.336,1.038 103.294,1.033 L103.294,1.033 C103.289,1.032 103.284,1.032 103.278,1.031 L103.278,1.031 C103.095,1.01 102.91,0.989 102.726,0.969 L102.726,0.969 C102.721,0.968 102.71,0.967 102.705,0.967 L102.705,0.967 C102.666,0.962 102.622,0.958 102.583,0.953 L102.583,0.953 C102.572,0.952 102.562,0.951 102.551,0.95 L102.551,0.95 C102.509,0.945 102.468,0.941 102.426,0.937 L102.426,0.937 C102.423,0.936 102.418,0.936 102.414,0.935 L102.414,0.935 C102.287,0.922 102.163,0.909 102.036,0.896 L102.036,0.896 C102.018,0.894 101.996,0.892 101.978,0.89 L101.978,0.89 C101.948,0.887 101.917,0.884 101.887,0.881 L101.887,0.881 C101.865,0.879 101.844,0.876 101.822,0.874 L101.822,0.874 C101.789,0.871 101.761,0.868 101.727,0.865 L101.727,0.865 C101.706,0.863 101.685,0.861 101.663,0.859 L101.663,0.859 C101.63,0.855 101.601,0.852 101.568,0.849 L101.568,0.849 C101.55,0.848 101.53,0.846 101.512,0.844 L101.512,0.844 C101.478,0.841 101.443,0.837 101.41,0.834 L101.41,0.834 C101.406,0.834 101.407,0.834 101.404,0.834 L101.404,0.834 C101.316,0.825 101.227,0.817 101.139,0.809 L101.139,0.809 C101.132,0.808 101.123,0.807 101.116,0.807 L101.116,0.807 C101.076,0.803 101.042,0.8 101.002,0.796 L101.002,0.796 C100.986,0.795 100.971,0.793 100.955,0.792 L100.955,0.792 C100.921,0.789 100.888,0.786 100.855,0.783 L100.855,0.783 C100.835,0.781 100.815,0.779 100.795,0.778 L100.795,0.778 C100.761,0.775 100.726,0.772 100.693,0.769 L100.693,0.769 C100.677,0.767 100.661,0.766 100.645,0.765 L100.645,0.765 C100.524,0.754 100.408,0.744 100.287,0.734 L100.287,0.734 C100.271,0.733 100.252,0.731 100.236,0.73 L100.236,0.73 C100.203,0.727 100.172,0.725 100.139,0.722 L100.139,0.722 C100.119,0.72 100.097,0.719 100.077,0.717 L100.077,0.717 C100.047,0.715 100.014,0.712 99.984,0.71 L99.984,0.71 C99.958,0.707 99.937,0.706 99.911,0.704 L99.911,0.704 C99.884,0.702 99.853,0.699 99.826,0.697 L99.826,0.697 C99.8,0.695 99.776,0.693 99.75,0.691 L99.75,0.691 C99.723,0.689 99.692,0.687 99.664,0.685 L99.664,0.685 C99.65,0.684 99.632,0.682 99.618,0.681 L99.618,0.681 C99.554,0.676 99.488,0.671 99.424,0.667 L99.424,0.667 C99.404,0.665 99.379,0.663 99.359,0.662 L99.359,0.662 C99.329,0.66 99.299,0.658 99.269,0.655 L99.269,0.655 C99.245,0.654 99.22,0.652 99.196,0.65 L99.196,0.65 C99.165,0.648 99.141,0.646 99.11,0.644 L99.11,0.644 C99.086,0.643 99.06,0.641 99.036,0.639 L99.036,0.639 C99.006,0.637 98.977,0.635 98.946,0.633 L98.946,0.633 C98.924,0.631 98.901,0.63 98.879,0.628 L98.879,0.628 C98.8,0.623 98.722,0.618 98.643,0.613 L98.643,0.613 C98.643,0.613 98.641,0.612 98.641,0.612 L98.641,0.612 C98.614,0.611 98.582,0.609 98.555,0.607 L98.555,0.607 C98.529,0.605 98.504,0.604 98.478,0.602 L98.478,0.602 C98.448,0.6 98.418,0.598 98.387,0.596 L98.387,0.596 C98.365,0.595 98.346,0.594 98.324,0.592 L98.324,0.592 C98.29,0.59 98.258,0.588 98.224,0.586 L98.224,0.586 C98.204,0.585 98.185,0.584 98.165,0.583 L98.165,0.583 C98.131,0.581 98.099,0.579 98.066,0.577 L98.066,0.577 C98.047,0.576 98.025,0.575 98.007,0.573 L98.007,0.573 C97.949,0.57 97.892,0.567 97.834,0.564 L97.834,0.564 C97.81,0.562 97.784,0.561 97.76,0.559 L97.76,0.559 C97.732,0.558 97.706,0.556 97.678,0.555 L97.678,0.555 C97.651,0.553 97.624,0.552 97.597,0.551 L97.597,0.551 C97.569,0.549 97.546,0.548 97.518,0.546 L97.518,0.546 C97.489,0.545 97.458,0.543 97.428,0.542 L97.428,0.542 C97.404,0.54 97.384,0.539 97.36,0.538 L97.36,0.538 C97.327,0.536 97.29,0.535 97.257,0.533 L97.257,0.533 C97.235,0.532 97.216,0.531 97.195,0.53 L97.195,0.53 C97.158,0.528 97.119,0.526 97.083,0.524 L97.083,0.524 C97.064,0.524 97.048,0.523 97.03,0.522 L97.03,0.522 C96.979,0.519 96.929,0.517 96.878,0.515 L96.878,0.515 C96.85,0.513 96.828,0.512 96.8,0.511 L96.8,0.511 C96.77,0.51 96.74,0.509 96.711,0.507 L96.711,0.507 C96.686,0.506 96.662,0.505 96.637,0.504 L96.637,0.504 C96.606,0.503 96.578,0.501 96.547,0.5 L96.547,0.5 C96.522,0.499 96.499,0.498 96.474,0.497 L96.474,0.497 C96.441,0.496 96.41,0.494 96.377,0.493 L96.377,0.493 C96.355,0.492 96.332,0.491 96.311,0.49 L96.311,0.49 C96.274,0.489 96.232,0.487 96.196,0.486 L96.196,0.486 C96.18,0.485 96.162,0.485 96.147,0.484 L96.147,0.484 C96.093,0.482 96.042,0.48 95.988,0.478 L95.988,0.478 C95.967,0.477 95.95,0.477 95.929,0.476 L95.929,0.476 C95.895,0.475 95.858,0.474 95.825,0.472 L95.825,0.472 C95.803,0.472 95.776,0.471 95.754,0.47 L95.754,0.47 C95.723,0.469 95.693,0.468 95.661,0.467 L95.661,0.467 C95.634,0.466 95.614,0.465 95.586,0.464 L95.586,0.464 C95.556,0.464 95.53,0.463 95.5,0.462 L95.5,0.462 C95.472,0.461 95.448,0.46 95.42,0.459 L95.42,0.459 C95.389,0.458 95.36,0.458 95.329,0.457 L95.329,0.457 C95.295,0.456 95.257,0.455 95.223,0.454 L95.223,0.454 C95.184,0.452 95.144,0.451 95.105,0.45 L95.105,0.45 C95.083,0.45 95.063,0.449 95.042,0.449 L95.042,0.449 C95.005,0.448 94.969,0.447 94.932,0.446 L94.932,0.446 C94.911,0.445 94.893,0.445 94.872,0.444 L94.872,0.444 C94.838,0.444 94.807,0.443 94.774,0.442 L94.774,0.442 C94.749,0.441 94.725,0.441 94.7,0.44 L94.7,0.44 C94.667,0.44 94.633,0.439 94.599,0.438 L94.599,0.438 C94.581,0.438 94.557,0.437 94.539,0.437 L94.539,0.437 C94.491,0.436 94.444,0.435 94.396,0.434 L94.396,0.434 C94.39,0.434 94.381,0.434 94.375,0.434 L94.375,0.434 C94.319,0.432 94.268,0.432 94.212,0.431 L94.212,0.431 C94.194,0.43 94.175,0.43 94.156,0.43 L94.156,0.43 C94.121,0.429 94.083,0.428 94.048,0.428 L94.048,0.428 C94.023,0.428 94.002,0.427 93.978,0.427 L93.978,0.427 C93.946,0.426 93.911,0.426 93.88,0.425 L93.88,0.425 C93.858,0.425 93.839,0.425 93.817,0.425 L93.817,0.425 C93.78,0.424 93.739,0.424 93.702,0.423 L93.702,0.423 C93.683,0.423 93.668,0.423 93.649,0.423 L93.649,0.423 C93.541,0.421 93.431,0.42 93.323,0.419 L93.323,0.419 C93.302,0.419 93.286,0.419 93.264,0.419 L93.264,0.419 C93.227,0.419 93.187,0.419 93.149,0.418 L93.149,0.418 C93.131,0.418 93.115,0.418 93.097,0.418 L93.097,0.418 C93.059,0.418 93.022,0.418 92.985,0.417 L92.985,0.417 C92.967,0.417 92.943,0.417 92.925,0.417 L92.925,0.417 C92.887,0.417 92.846,0.417 92.809,0.417 L92.809,0.417 C92.794,0.417 92.773,0.417 92.758,0.417 L92.758,0.417 C92.702,0.417 92.648,0.417 92.592,0.417 L92.592,0.417 C41.833,0.417 0.686,41.565 0.686,92.323" id="path-20"></path>
    </defs>
    <g id="Iconography" stroke="none" stroke-width="1" fill="none" fill-rule="evenodd">
        <g id="IC-1Launch-digital-products-faster" transform="translate(-33.000000, -53.000000)">
            <g id="Launch-digital-products-faster" transform="translate(32.000000, 21.000000)">
                <g id="Group-3" transform="translate(1.000000, 32.500000)">
                    <mask id="mask-2" fill="white">
                        <use xlink:href="#path-1"></use>
                    </mask>
                    <g id="Clip-2"></g>
                    <path d="M165.837,29.161 L165.844,29.107 C165.844,29.107 112.344,78.164 53.288,77.092 L53.288,77.092 C52.33,77.037 51.367,77 50.395,77 L50.395,77 C22.781,77 0.395,99.386 0.395,127 L0.395,127 C0.395,154.241 22.184,176.378 49.282,176.972 L49.282,176.972 C72.94,180.825 87.443,192.427 94.343,199.524 L94.343,199.524 C107.938,218.572 130.206,231 155.395,231 L155.395,231 C173.566,231 190.219,224.53 203.197,213.778 L203.197,213.778 C217.623,205.346 235.117,201.3 243.316,199.757 L243.316,199.757 C295.315,196.202 336.395,152.902 336.395,100 L336.395,100 C336.395,44.771 291.623,0 236.395,0 L236.395,0 C208.852,0 183.921,11.145 165.837,29.161" id="Fill-1" fill="url(#linearGradient-3)" mask="url(#mask-2)"></path>
                </g>
                <path d="M261.4993,131.8232 C261.4993,182.5832 220.3523,223.7302 169.5923,223.7302 C118.8333,223.7302 77.6863,182.5832 77.6863,131.8232 C77.6863,81.0642 118.8333,39.9172 169.5923,39.9172 C220.3523,39.9172 261.4993,81.0642 261.4993,131.8232" id="Fill-4" fill="#306BC4"></path>
                <g id="Group-15" transform="translate(77.000000, 39.500000)">
                    <g id="Group-8">
                        <mask id="mask-5" fill="white">
                            <use xlink:href="#path-4"></use>
                        </mask>
                        <g id="Clip-7"></g>
                        <path d="M117.1009,-6.4766 C72.6789,2.7144 80.3379,21.0954 104.8469,42.5414 C129.3559,63.9854 106.3779,99.2164 80.3379,88.4944 C54.2979,77.7714 40.5119,71.6444 29.7889,85.4304 C19.0669,99.2164 27.6039,114.2694 4.6259,117.3334 C-18.3501,120.3964 -31.4821,60.9214 -3.9101,28.7544 C23.6629,-3.4136 117.1009,-6.4766 117.1009,-6.4766" id="Fill-6" fill="#4E97EE" mask="url(#mask-5)"></path>
                    </g>
                    <g id="Group-11">
                        <mask id="mask-7" fill="white">
                            <use xlink:href="#path-6"></use>
                        </mask>
                        <g id="Clip-10"></g>
                        <path d="M190.1419,85.5303 C164.1009,108.5073 121.6969,125.2573 89.5289,120.6623 C68.4089,117.6443 52.7659,142.1063 83.4019,160.4883 C114.0379,178.8693 71.1479,183.4653 71.1479,183.4653 C71.1479,183.4653 140.0779,217.1643 172.2459,162.0193 C204.4129,106.8763 190.1419,85.5303 190.1419,85.5303" id="Fill-9" fill="#4E97EE" mask="url(#mask-7)"></path>
                    </g>
                    <g id="Group-14">
                        <mask id="mask-9" fill="white">
                            <use xlink:href="#path-8"></use>
                        </mask>
                        <g id="Clip-13"></g>
                        <path d="M143.1409,1.1826 C127.8239,37.9456 130.4309,94.3236 183.5049,79.9206 C236.5799,65.5176 143.1409,1.1826 143.1409,1.1826" id="Fill-12" fill="#4E97EE" mask="url(#mask-9)"></path>
                    </g>
                </g>
                <g id="Group-18" transform="translate(0.000000, 42.500000)">
                    <mask id="mask-11" fill="white">
                        <use xlink:href="#path-10"></use>
                    </mask>
                    <g id="Clip-17"></g>
                    <path d="M65.0247,116.334 L65.0247,116.334 C69.8577,129.075 115.3967,132.972 175.7527,110.075 C236.1097,87.181 267.6047,54.062 262.7737,41.322 C257.9407,28.581 212.4027,24.686 152.0457,47.58 C124.2897,58.109 99.8367,71.938 83.1877,86.517 C82.0247,87.535 80.9097,88.553 79.8427,89.567 C68.5857,100.272 62.8267,110.54 65.0247,116.334 M255.7867,69.974 C234.8797,88.72 205.9617,107.864 174.3587,123.877 C142.7547,139.893 111.9707,151.001 87.6767,155.159 C60.2257,159.856 43.3797,155.002 40.2417,141.491 C37.1027,127.98 48.3887,108.867 72.0067,87.688 C92.9127,68.942 121.8307,49.8 153.4327,33.784 C185.0377,17.771 215.8217,6.661 240.1147,2.504 C275.2987,-3.519 285.3307,6.612 287.5507,16.171 C290.4797,28.784 280.8477,46.269 260.3437,65.766 C258.8797,67.158 257.3597,68.562 255.7867,69.974" id="Fill-16" fill="#6EB2F8" opacity="0.600027902" mask="url(#mask-11)"></path>
                </g>
                <g id="Group-21" transform="translate(133.000000, 0.500000)">
                    <mask id="mask-13" fill="white">
                        <use xlink:href="#path-12"></use>
                    </mask>
                    <g id="Clip-20"></g>
                    <path d="M86.0374,56.4541 C84.6044,56.7881 83.1414,57.1621 81.6514,57.5741 C60.3274,63.4871 35.3454,76.3361 11.3074,93.7571 C-40.9626,131.6381 -62.7036,171.8401 -54.7076,182.8731 C-46.7116,193.9051 -1.7396,185.7611 50.5304,147.8781 C102.8004,109.9981 124.5424,69.7961 116.5454,58.7621 C112.9094,53.7431 101.1654,52.9211 86.0374,56.4541 M-32.9426,194.2611 C-60.4946,200.6961 -80.3976,199.1481 -89.3316,189.7761 C-96.1036,182.6741 -99.0636,168.7271 -74.7156,142.6241 C-57.9046,124.6011 -31.7206,104.9681 -0.9856,87.3431 C29.7494,69.7191 61.6234,56.0571 88.7694,48.8731 C119.4354,40.7581 141.6064,41.8151 151.1784,51.8561 C160.7484,61.8961 155.5574,78.6421 136.5624,99.0091 C119.7514,117.0321 93.5664,136.6661 62.8314,154.2901 C32.0984,171.9151 0.2224,185.5771 -26.9236,192.7611 C-28.9676,193.3011 -30.9766,193.8021 -32.9426,194.2611" id="Fill-19" fill="#6EB2F8" opacity="0.599074591" mask="url(#mask-13)"></path>
                </g>
                <g id="Group-24" transform="translate(77.000000, 39.500000)">
                    <mask id="mask-15" fill="white">
                        <use xlink:href="#path-14"></use>
                    </mask>
                    <g id="Clip-23"></g>
                    <path d="M184.4993,92.3232 C184.4993,143.0832 143.3523,184.2302 92.5923,184.2302 C41.8333,184.2302 0.6863,143.0832 0.6863,92.3232 C0.6863,41.5642 41.8333,0.4172 92.5923,0.4172 C143.3523,0.4172 184.4993,41.5642 184.4993,92.3232" id="Fill-22" fill="#306BC4" mask="url(#mask-15)"></path>
                </g>
                <g id="Group-34" transform="translate(77.000000, 39.500000)">
                    <g id="Group-27">
                        <mask id="mask-17" fill="white">
                            <use xlink:href="#path-16"></use>
                        </mask>
                        <g id="Clip-26"></g>
                        <path d="M117.1009,-6.4766 C72.6789,2.7144 80.3379,21.0954 104.8469,42.5414 C129.3559,63.9854 106.3779,99.2164 80.3379,88.4944 C54.2979,77.7714 40.5119,71.6444 29.7889,85.4304 C19.0669,99.2164 28.6629,115.3294 5.6869,118.3924 C-17.2901,121.4564 -31.4821,60.9214 -3.9101,28.7544 C23.6629,-3.4136 117.1009,-6.4766 117.1009,-6.4766" id="Fill-25" fill="#4E97EE" mask="url(#mask-17)"></path>
                    </g>
                    <g id="Group-30">
                        <mask id="mask-19" fill="white">
                            <use xlink:href="#path-18"></use>
                        </mask>
                        <g id="Clip-29"></g>
                        <path d="M187.5628,97.6846 C161.5228,120.6626 121.6968,125.2566 89.5288,120.6626 C68.4088,117.6446 52.7658,142.1066 83.4018,160.4886 C114.0378,178.8696 71.1478,183.4646 71.1478,183.4646 C71.1478,183.4646 140.0778,217.1636 172.2458,162.0196 C204.4128,106.8756 187.5628,97.6846 187.5628,97.6846" id="Fill-28" fill="#4E97EE" mask="url(#mask-19)"></path>
                    </g>
                    <g id="Group-33">
                        <mask id="mask-21" fill="white">
                            <use xlink:href="#path-20"></use>
                        </mask>
                        <g id="Clip-32"></g>
                        <path d="M143.1409,1.1826 C127.8239,37.9456 130.4309,94.3236 183.5049,79.9206 C236.5799,65.5176 143.1409,1.1826 143.1409,1.1826" id="Fill-31" fill="#4E97EE" mask="url(#mask-21)"></path>
                    </g>
                </g>
                <g id="Group-59" transform="translate(133.000000, 95.500000)">
                    <path d="M42.7327,67.833 C42.8987,68.068 43.0467,68.318 43.2327,68.537 C44.4117,69.924 46.3417,70.363 47.9997,69.598 C49.4567,68.925 50.8977,68.217 52.3457,67.524 C52.3867,67.625 52.4227,67.728 52.4697,67.825 C53.8557,70.673 55.2417,73.52 56.6287,76.366 C56.6687,76.448 56.7047,76.531 56.7517,76.608 C56.9287,76.9 57.0037,76.931 57.3267,76.796 C57.8097,76.594 58.2957,76.393 58.7677,76.166 C60.3827,75.392 61.9927,74.605 63.6037,73.823 C64.6847,76.021 65.8177,80.124 65.2587,82.502 C64.7747,84.563 63.7827,86.381 62.5447,88.075 C61.0527,90.118 59.2657,91.879 57.3367,93.503 C55.2557,95.254 53.0277,96.793 50.6877,98.176 C50.2327,98.445 50.2347,98.456 50.4587,98.913 C51.0207,100.067 50.6957,99.408 51.2597,100.562 C51.5787,101.212 51.8907,101.864 52.2167,102.511 C52.3867,102.846 52.4127,102.847 52.7607,102.699 C52.8277,102.671 52.8917,102.638 52.9577,102.606 C55.3877,101.44 57.8287,100.295 60.2467,99.104 C63.2317,97.633 66.2807,96.293 69.1987,94.683 C71.0687,93.65 72.8847,92.537 74.6267,91.298 C77.7087,89.104 80.4907,86.59 82.8467,83.623 C86.5467,78.964 88.8527,73.717 89.4517,67.767 C89.6637,65.654 89.6757,63.541 89.2727,61.443 C91.7817,60.19 94.3307,59.021 96.7977,57.685 C98.0867,56.987 99.3757,56.288 100.6707,55.606 C101.2297,55.312 101.7857,55.005 102.3317,54.685 C104.1237,53.63 105.8977,52.546 107.7027,51.513 C109.3347,50.578 110.8687,49.493 112.4687,48.51 C113.7627,47.716 114.9977,46.827 116.2677,45.996 C118.5237,44.52 120.6967,42.927 122.8747,41.339 C123.7207,40.722 124.5437,40.069 125.3717,39.428 C126.0247,38.922 126.6557,38.38 127.3417,37.915 C127.6107,37.795 127.8207,37.59 128.0447,37.409 C131.6647,34.494 135.1887,31.469 138.5337,28.237 C142.1277,24.767 145.5297,21.119 148.6557,17.219 C152.2277,12.76 155.4007,8.038 158.0277,2.957 C158.1277,2.765 158.2317,2.573 158.3187,2.375 C158.4467,2.082 158.4367,2.067 158.1107,1.979 C157.9187,1.929 157.7227,1.89 157.5287,1.849 C155.4197,1.405 153.2957,1.06 151.1577,0.807 C149.0407,0.555 146.9167,0.391 144.7857,0.286 C143.3827,0.217 141.9827,0.173 140.5807,0.16 C138.0407,0.135 135.5057,0.226 132.9717,0.407 C130.2127,0.604 127.4637,0.892 124.7207,1.234 C122.5447,1.506 120.3787,1.858 118.2257,2.278 C116.5037,2.613 114.7827,2.947 113.0667,3.307 C112.3957,3.447 111.7117,3.543 111.0687,3.797 C110.8557,3.829 110.6377,3.846 110.4287,3.896 C109.2897,4.174 108.1487,4.447 107.0147,4.745 C105.3027,5.195 103.5897,5.641 101.8897,6.132 C99.7207,6.758 97.5577,7.403 95.4187,8.124 C93.5697,8.747 91.7107,9.333 89.8787,10.006 C88.0987,10.659 86.3137,11.294 84.5467,11.984 C82.8817,12.636 81.2277,13.311 79.5687,13.975 C78.2947,14.484 77.0197,15.002 75.7817,15.592 C73.9057,16.486 71.9737,17.26 70.1227,18.206 C69.6717,18.437 69.2107,18.645 68.7537,18.865 C68.4937,18.469 68.1417,18.152 67.8037,17.828 C64.3607,14.524 60.2927,12.325 55.7167,11.042 C51.3687,9.821 46.9457,9.63 42.4797,10.19 C39.4717,10.567 36.5437,11.278 33.6747,12.261 C32.0307,12.824 30.4037,13.429 28.8257,14.157 C25.3257,15.774 21.8587,17.461 18.3887,19.141 C16.7277,19.945 15.0647,20.747 13.4047,21.556 C12.9887,21.758 12.9697,21.793 13.1457,22.161 C14.0387,24.021 14.0437,24.067 14.9457,25.923 C15.1207,26.281 15.1547,26.29 15.5357,26.138 C16.3917,25.794 17.2647,25.496 18.1417,25.21 C21.0577,24.262 24.0297,23.566 27.0847,23.256 C29.5457,23.005 32.0017,23.006 34.4257,23.574 C37.8697,24.383 41.4387,28.016 43.0067,31.276 C42.1227,31.679 41.2317,32.071 40.3527,32.487 C39.2247,33.02 38.1067,33.57 36.9847,34.113 C36.2597,34.465 36.2587,34.465 36.6167,35.203 L40.8967,44.03 C39.5327,44.692 38.1687,45.354 36.8037,46.018 C35.6717,46.568 34.8957,47.429 34.5587,48.651 C34.3057,49.568 34.3707,50.474 34.7427,51.354 C34.5767,51.445 34.3937,51.432 34.2137,51.447 C33.4647,51.512 32.7147,51.494 31.9647,51.641 C29.9757,52.031 27.9997,52.461 26.1017,53.187 C24.3087,53.871 22.5637,54.665 20.9427,55.704 C20.0457,56.278 19.1437,56.854 18.2957,57.496 C17.6237,58.005 17.0217,58.608 16.4017,59.185 C14.4007,61.042 12.7067,63.152 11.2717,65.472 C9.6557,68.085 8.4097,70.869 7.4577,73.787 C7.1057,74.866 7.0277,74.763 8.1077,75.159 C11.1767,76.287 14.3297,77.065 17.5887,77.398 C22.7117,77.922 27.6577,77.224 32.4047,75.222 C34.2247,74.454 35.9447,73.488 37.5587,72.346 C39.2157,71.173 40.7777,69.891 42.1257,68.36 C42.2987,68.164 42.4567,67.923 42.7327,67.833" id="Fill-35" fill="#14D997"></path>
                    <path d="M127.3421,37.915 C126.3071,35.766 125.2461,33.628 124.2421,31.463 C123.1311,29.068 121.9741,26.696 120.8401,24.313 C118.5651,19.53 116.2681,14.757 114.0111,9.965 C113.0401,7.904 112.0501,5.852 111.0691,3.798 C111.7121,3.543 112.3961,3.447 113.0671,3.307 C114.7821,2.947 116.5041,2.613 118.2261,2.278 C120.3791,1.858 122.5441,1.506 124.7211,1.234 C127.4641,0.892 130.2131,0.603 132.9721,0.407 C135.5061,0.226 138.0401,0.135 140.5801,0.16 C141.9831,0.173 143.3831,0.217 144.7851,0.286 C146.9161,0.391 149.0401,0.555 151.1571,0.807 C153.2961,1.06 155.4201,1.405 157.5291,1.849 C157.7231,1.89 157.9181,1.929 158.1111,1.979 C158.4371,2.067 158.4461,2.082 158.3191,2.375 C158.2321,2.573 158.1271,2.765 158.0281,2.957 C155.4011,8.038 152.2281,12.76 148.6551,17.219 C145.5291,21.119 142.1271,24.767 138.5331,28.237 C135.1891,31.469 131.6641,34.494 128.0441,37.409 C127.8211,37.59 127.6111,37.795 127.3421,37.915" id="Fill-37" fill="#00DE91"></path>
                    <path d="M52.2093,26.8418 C51.9503,26.8828 51.7573,27.0588 51.5303,27.1678 C48.6893,28.5368 45.8493,29.9068 43.0073,31.2768 C41.4383,28.0158 37.8693,24.3828 34.4263,23.5738 C32.0013,23.0058 29.5463,23.0048 27.0843,23.2558 C24.0293,23.5668 21.0583,24.2618 18.1423,25.2098 C17.2653,25.4958 16.3923,25.7938 15.5353,26.1378 C15.1543,26.2898 15.1203,26.2808 14.9453,25.9228 C14.0433,24.0678 14.0383,24.0218 13.1463,22.1608 C12.9703,21.7928 12.9883,21.7578 13.4043,21.5558 C15.0643,20.7468 16.7283,19.9458 18.3893,19.1408 C21.8583,17.4608 25.3253,15.7748 28.8253,14.1568 C30.4033,13.4288 32.0303,12.8238 33.6753,12.2608 C36.5433,11.2788 39.4723,10.5678 42.4803,10.1908 C46.9453,9.6298 51.3683,9.8208 55.7173,11.0418 C60.2923,12.3248 64.3603,14.5248 67.8043,17.8278 C68.1423,18.1528 68.4933,18.4688 68.7543,18.8648 C68.5143,18.9898 68.2773,19.1218 68.0333,19.2398 C64.2733,21.0568 60.5143,22.8708 56.7543,24.6858 C56.6883,24.7168 56.6273,24.7538 56.5633,24.7888 L56.5543,24.7898 C56.5083,24.7588 56.4673,24.7648 56.4323,24.8088 C55.5483,25.2338 54.6633,25.6578 53.7793,26.0838 C53.7413,26.0808 53.7113,26.0958 53.6893,26.1268 C53.4583,26.2378 53.2283,26.3498 52.9963,26.4608 C52.9353,26.4908 52.8733,26.5208 52.8113,26.5508 C52.6103,26.6478 52.4093,26.7438 52.2093,26.8418" id="Fill-39" fill="#FFFFFF"></path>
                    <path d="M63.6038,73.8232 C63.8408,73.6932 64.0738,73.5522 64.3168,73.4332 C66.8728,72.1952 69.4288,70.9602 71.9848,69.7222 C72.1308,69.6522 72.2728,69.5712 72.4168,69.4962 C73.9098,68.7842 75.4028,68.0732 76.8948,67.3582 C76.9578,67.3292 77.0098,67.2742 77.0668,67.2302 C78.1368,66.7882 79.1528,66.2262 80.2058,65.7472 C83.1018,64.4252 85.9448,62.9922 88.8218,61.6282 C88.9678,61.5582 89.1228,61.5042 89.2728,61.4432 C89.6758,63.5412 89.6638,65.6542 89.4518,67.7662 C88.8528,73.7172 86.5468,78.9642 82.8468,83.6232 C80.4908,86.5902 77.7078,89.1042 74.6258,91.2982 C72.8848,92.5372 71.0688,93.6502 69.1988,94.6822 C66.2808,96.2932 63.2318,97.6332 60.2468,99.1032 C57.8288,100.2952 55.3878,101.4402 52.9578,102.6062 C52.8918,102.6372 52.8278,102.6712 52.7608,102.6992 C52.4128,102.8462 52.3868,102.8452 52.2168,102.5102 C51.8908,101.8642 51.5788,101.2122 51.2598,100.5612 C50.6958,99.4082 51.0208,100.0672 50.4578,98.9132 C50.2348,98.4562 50.2328,98.4452 50.6878,98.1762 C53.0278,96.7932 55.2558,95.2542 57.3358,93.5032 C59.2658,91.8792 61.0528,90.1182 62.5448,88.0752 C63.7828,86.3812 64.7748,84.5632 65.2588,82.5022 C65.8178,80.1242 64.6848,76.0202 63.6038,73.8232" id="Fill-41" fill="#FFFFFF"></path>
                    <path d="M44.848,69.9199 C44.503,70.0309 44.307,70.3319 44.091,70.5759 C42.412,72.4829 40.467,74.0789 38.404,75.5399 C36.392,76.9639 34.25,78.1659 31.983,79.1219 C26.071,81.6159 19.911,82.4849 13.529,81.8329 C9.469,81.4189 5.541,80.4499 1.719,79.0449 C0.373,78.5509 0.471,78.6809 0.91,77.3359 C2.095,73.7009 3.647,70.2329 5.66,66.9789 C7.447,64.0889 9.557,61.4599 12.05,59.1469 C12.823,58.4299 13.572,57.6779 14.409,57.0429 C15.465,56.2429 16.588,55.5259 17.705,54.8119 C19.725,53.5179 21.899,52.5279 24.133,51.6749 C26.495,50.7729 28.957,50.2359 31.435,49.7509 C32.369,49.5669 33.303,49.5899 34.237,49.5099 C34.46,49.4899 34.689,49.5069 34.895,49.3929 C35.552,50.4739 36.053,51.6309 36.571,52.7799 C36.345,52.9109 36.091,52.8899 35.846,52.9029 C34.607,52.9719 33.388,53.1809 32.181,53.4609 C29.971,53.9749 27.907,54.8559 25.911,55.9149 C24.935,56.4339 24.018,57.0449 23.141,57.7139 C20.572,59.6749 18.5,62.0859 16.753,64.7939 C15.491,66.7509 14.644,68.8999 13.816,71.0569 C13.365,72.2329 13.448,72.3669 14.621,72.7709 C16.497,73.4139 18.411,73.9209 20.369,74.2469 C23.14,74.7099 25.926,74.8019 28.703,74.3549 C31.633,73.8829 34.418,72.9879 37,71.4649 C39.015,70.2769 40.839,68.8759 42.481,67.2219 C42.716,66.9839 42.852,66.6489 43.188,66.5139 C43.815,67.6129 44.365,68.7499 44.848,69.9199" id="Fill-43" fill="#FFE8A0"></path>
                    <path d="M85.2191,37.1963 C88.2371,43.3933 95.4071,45.5143 101.0631,42.9583 C107.1141,40.2203 109.9441,32.9353 107.0241,26.7813 C104.1491,20.7203 97.1241,18.3203 91.1841,21.0073 C84.9371,23.8323 82.3821,31.1043 85.2191,37.1963" id="Fill-45" fill="#94C5FA"></path>
                    <path d="M52.9964,26.4609 C52.9614,26.5459 52.8994,26.5759 52.8104,26.5509 C52.8734,26.5209 52.9344,26.4909 52.9964,26.4609" id="Fill-47" fill="#B3ADA7"></path>
                    <path d="M53.7796,26.084 C53.7616,26.101 53.7466,26.121 53.7266,26.134 C53.7186,26.139 53.7026,26.13 53.6896,26.127 C53.7116,26.096 53.7416,26.081 53.7796,26.084" id="Fill-49" fill="#B3ADA7"></path>
                    <path d="M56.554,24.79 C56.513,24.796 56.472,24.803 56.432,24.809 C56.467,24.765 56.508,24.759 56.554,24.79" id="Fill-51" fill="#B3ADA7"></path>
                    <path d="M36.5355,52.6973 C37.1595,53.8013 37.6305,54.9783 38.1815,56.1173 C39.7645,59.3913 41.3585,62.6593 42.9465,65.9303 C43.0775,66.1993 43.1875,66.4773 43.3075,66.7513 C42.9635,66.8893 42.8245,67.2333 42.5845,67.4753 C40.9035,69.1693 39.0365,70.6033 36.9755,71.8193 C34.3325,73.3773 31.4825,74.2943 28.4845,74.7763 C25.6415,75.2343 22.7915,75.1393 19.9545,74.6663 C17.9515,74.3323 15.9935,73.8133 14.0735,73.1543 C12.8725,72.7423 12.7865,72.6053 13.2495,71.4003 C14.0965,69.1943 14.9625,66.9953 16.2545,64.9923 C18.0425,62.2203 20.1625,59.7533 22.7925,57.7463 C23.6885,57.0613 24.6275,56.4363 25.6265,55.9053 C27.6695,54.8213 29.7815,53.9203 32.0435,53.3943 C33.2785,53.1063 34.5245,52.8933 35.7945,52.8233 C36.0445,52.8093 36.3045,52.8313 36.5355,52.6973" id="Fill-53" fill="#FFD840"></path>
                    <path d="M85.2191,37.1963 C82.3821,31.1043 84.9371,23.8323 91.1841,21.0073 C97.1241,18.3203 104.1491,20.7203 107.0241,26.7813 C109.9441,32.9353 107.1141,40.2203 101.0631,42.9583 C95.4071,45.5143 88.2371,43.3933 85.2191,37.1963" id="Fill-55" fill="#306BC4"></path>
                    <path d="M111.3245,3.7354 L127.5755,37.3934" id="Stroke-57" stroke="#2E5078"></path>
                </g>
            </g>
        </g>
    </g>
</svg>